<svg xmlns="http://www.w3.org/2000/svg" viewBox="0 0 117.46 54.23"><title>Asset 2</title><g id="Layer_2" data-name="Layer 2"><g id="Layer_1-2" data-name="Layer 1"><path d="M45.42,31.95c.1,0,.18.11.26.32s.07.34,0,.39L39,37a.43.43,0,0,1-.24.06q-.48,0-.84-1.38a17,17,0,0,1-.41-3.77q-3.17,5-6.86,5a4.76,4.76,0,0,1-4.15-2.22A10.18,10.18,0,0,1,25,28.86V19.39q0-4.19-1.49-4.19a2.24,2.24,0,0,0-1.2.45h0c-.13,0-.22-.12-.29-.35s0-.38,0-.42l6.43-4.12.24-.06a.72.72,0,0,1,.5.29.85.85,0,0,1,.26.55V25.76q0,7,4,7a4.3,4.3,0,0,0,2.14-.61,6.67,6.67,0,0,0,1.94-1.71v-11q0-4.19-1.49-4.19a2.47,2.47,0,0,0-1.25.45h0c-.1,0-.18-.12-.24-.35s0-.38,0-.42L41,10.76a.43.43,0,0,1,.24-.06.72.72,0,0,1,.5.29.85.85,0,0,1,.26.55V28.66a10.57,10.57,0,0,0,.31,3.09q.31.9,1,.9a4.67,4.67,0,0,0,2-.71Z"/><path d="M70.28,35.75c0,.26,0,.39-.14.39q-1.25,0-2-.06L65.29,36l-2.78.06q-.77.06-2,.06-.14,0-.14-.39t.14-.39a2.11,2.11,0,0,0,2-.93A7.93,7.93,0,0,0,63,30.92V21.64a10.94,10.94,0,0,0-.94-5.15,3.14,3.14,0,0,0-3-1.67,5.1,5.1,0,0,0-2.38.64,7,7,0,0,0-2.14,1.74V30.92a7.63,7.63,0,0,0,.55,3.51,2.17,2.17,0,0,0,2,.93q.14,0,.14.39t-.14.39q-1.25,0-2-.06L52.38,36l-2.83.06q-.72.06-2,.06-.14,0-.14-.39t.14-.39a2.11,2.11,0,0,0,2-.93,7.94,7.94,0,0,0,.53-3.51V18.81a8.77,8.77,0,0,0-.36-2.93q-.36-.93-1.13-.93a5,5,0,0,0-2.3.9h-.1c-.1,0-.17-.11-.22-.32s0-.34,0-.39l6.67-4.38a1.65,1.65,0,0,1,.34-.13q.53,0,1,1.38a13.63,13.63,0,0,1,.58,3.77q3.31-5.28,7.3-5.28A4.72,4.72,0,0,1,66,12.72a10.18,10.18,0,0,1,1.51,5.83V30.92a7.62,7.62,0,0,0,.55,3.51,2.17,2.17,0,0,0,2,.93C70.23,35.36,70.28,35.49,70.28,35.75Z"/><path d="M95.53,35.75c0,.26,0,.39-.14.39q-1.25,0-2-.06L90.54,36l-2.78.06q-.77.06-2,.06-.14,0-.14-.39t.14-.39a2.11,2.11,0,0,0,2-.93,7.93,7.93,0,0,0,.53-3.51V21.64a10.94,10.94,0,0,0-.94-5.15,3.14,3.14,0,0,0-3-1.67,5.1,5.1,0,0,0-2.38.64,7,7,0,0,0-2.14,1.74V30.92a7.63,7.63,0,0,0,.55,3.51,2.17,2.17,0,0,0,2,.93q.14,0,.14.39t-.14.39q-1.25,0-2-.06L77.62,36l-2.83.06q-.72.06-2,.06-.14,0-.14-.39t.14-.39a2.11,2.11,0,0,0,2-.93,7.94,7.94,0,0,0,.53-3.51V18.81A8.77,8.77,0,0,0,75,15.88q-.36-.93-1.13-.93a5,5,0,0,0-2.3.9h-.1c-.1,0-.17-.11-.22-.32s0-.34,0-.39L78,10.76a1.65,1.65,0,0,1,.34-.13q.53,0,1,1.38a13.63,13.63,0,0,1,.58,3.77q3.31-5.28,7.3-5.28a4.72,4.72,0,0,1,4.1,2.22,10.18,10.18,0,0,1,1.51,5.83V30.92a7.62,7.62,0,0,0,.55,3.51,2.17,2.17,0,0,0,2,.93C95.48,35.36,95.53,35.49,95.53,35.75Z"/><path d="M117.46,11.66c0,.26,0,.39-.1.39a3.19,3.19,0,0,0-2.66,1.77,19.15,19.15,0,0,0-2,5.12l-5.33,19q-2.55,9-4.87,12.66T97.3,54.23a2.91,2.91,0,0,1-2.21-.8,3.28,3.28,0,0,1-.77-2.35A3.34,3.34,0,0,1,95,48.82a2.09,2.09,0,0,1,1.63-.77,1.86,1.86,0,0,1,.89.19,5.41,5.41,0,0,1,.89.64,2.65,2.65,0,0,0,1.73.84,2.53,2.53,0,0,0,2-1.13A14.4,14.4,0,0,0,104,44.86q1-2.61,2.3-7.44L98.6,16.62a21.9,21.9,0,0,0-1.66-3.67,1.74,1.74,0,0,0-1.46-.9c-.1,0-.14-.13-.14-.39s0-.39.14-.39q1.34,0,2.06.06l2,.06,3.31-.06q.77-.06,2.06-.06.14,0,.14.39c0,.26,0,.39-.14.39a4.28,4.28,0,0,0-1.82.29,1,1,0,0,0-.58.93,3.85,3.85,0,0,0,.29,1.29l5.66,15.52,2.88-11.21a12.24,12.24,0,0,0,.43-3A4.51,4.51,0,0,0,111,13a2.62,2.62,0,0,0-2.21-1c-.06,0-.1-.13-.1-.39s0-.39.1-.39q1.3,0,2,.06l2.88.06,1.92-.06a17.72,17.72,0,0,1,1.78-.06Q117.46,11.27,117.46,11.66Z"/><path d="M6.38,10.33a11.66,11.66,0,0,0,2.45,2.88q1.45,1.23,3.93,3a52.06,52.06,0,0,1,4.31,3.29,12.74,12.74,0,0,1,2.75,3.43A9.4,9.4,0,0,1,21,27.59,9.92,9.92,0,0,1,19.45,33a10.17,10.17,0,0,1-4.17,3.7,13.23,13.23,0,0,1-6,1.32,18.9,18.9,0,0,1-5.06-.73A8.78,8.78,0,0,1,.7,35.69a2.17,2.17,0,0,1-.4-.44,1.27,1.27,0,0,1-.13-.67L0,25.24v-.06c0-.16.09-.24.27-.26a.26.26,0,0,1,.32.21q1.62,3.58,2.83,5.81a15,15,0,0,0,3.07,3.93,6.08,6.08,0,0,0,4.23,1.7,5.11,5.11,0,0,0,3.56-1.26Q15.68,34,15.68,31a9.34,9.34,0,0,0-1.05-4.52,12.12,12.12,0,0,0-2.56-3.29A49.43,49.43,0,0,0,7.92,20a43.28,43.28,0,0,1-4-3.11,12.21,12.21,0,0,1-2.45-3.11,8.59,8.59,0,0,1-1-4.28A8.38,8.38,0,0,1,2.07,4.2,9.77,9.77,0,0,1,6.3,1a14.61,14.61,0,0,1,5.44-1,19.78,19.78,0,0,1,3.82.38,15,15,0,0,1,3.12.91,1.51,1.51,0,0,1,.65.5,1.28,1.28,0,0,1,.16.67v8.63c0,.12-.09.21-.27.26s-.29,0-.32-.09l-.43-1.12a27.2,27.2,0,0,0-3.15-6.28,5.8,5.8,0,0,0-5-2.58A4.82,4.82,0,0,0,6.76,2.64,5.27,5.27,0,0,0,5.39,6.57,7.09,7.09,0,0,0,6.38,10.33Z"/></g></g></svg>