<svg xmlns="http://www.w3.org/2000/svg" viewBox="0 0 142.49 70.19"><defs><style>.cls-1,.cls-3{fill:#fff;}.cls-2{fill:none;stroke:#fff;stroke-linecap:round;stroke-miterlimit:10;opacity:0.5;}.cls-3{font-size:12px;font-family:ArialMT, Arial;}</style></defs><title>Asset 5</title><g id="Layer_2" data-name="Layer 2"><g id="Layer_1-2" data-name="Layer 1"><circle class="cls-1" cx="5.78" cy="11.95" r="2.34"/><circle class="cls-1" cx="40.31" cy="21.95" r="2.34"/><circle class="cls-1" cx="59.53" cy="32.57" r="2.34"/><circle class="cls-1" cx="88.52" cy="2.96" r="2.96"/><circle class="cls-1" cx="98.43" cy="39.61" r="2.81"/><circle class="cls-1" cx="114.37" cy="39.14" r="2.34"/><circle class="cls-1" cx="135.46" cy="33.67" r="2.34"/><circle class="cls-1" cx="140.15" cy="19.61" r="2.34"/><circle class="cls-1" cx="76.09" cy="50.39" r="2.34"/><circle class="cls-1" cx="61.87" cy="66.79" r="3.4"/><circle class="cls-1" cx="89.57" cy="25.35" r="2.59"/><circle class="cls-1" cx="24.22" cy="43.82" r="2.34"/><circle class="cls-1" cx="2.34" cy="37.26" r="2.34"/><line class="cls-2" x1="10.7" y1="13.4" x2="35.52" y2="20.75"/><line class="cls-2" x1="43.89" y1="24.29" x2="55.67" y2="31"/><line class="cls-2" x1="63.36" y1="31.99" x2="85.56" y2="26.91"/><line class="cls-2" x1="88.52" y1="6.82" x2="89.57" y2="21.33"/><line class="cls-2" x1="91.47" y1="28.52" x2="96.23" y2="35.71"/><line class="cls-2" x1="79.11" y1="48.74" x2="94.74" y2="41.48"/><line class="cls-2" x1="102.43" y1="39.61" x2="110.74" y2="39.61"/><line class="cls-2" x1="59.53" y1="35.71" x2="61.87" y2="61.88"/><line class="cls-2" x1="73.75" y1="52.73" x2="65.27" y2="63.39"/><line class="cls-2" x1="27.73" y1="46.17" x2="57.18" y2="64.37"/><line class="cls-2" x1="5.78" y1="38.19" x2="19.73" y2="42.42"/><line class="cls-2" x1="117.8" y1="39.14" x2="132.51" y2="35"/><line class="cls-2" x1="138.92" y1="22.76" x2="136.67" y2="30.57"/><text class="cls-3" transform="translate(55.86 17.48)">virgo</text></g></g></svg>