<svg xmlns="http://www.w3.org/2000/svg" viewBox="0 0 67.25 64.3"><defs><style>.cls-1{fill:#fff;}</style></defs><title>star</title><g id="Layer_2" data-name="Layer 2"><g id="Layer_1-2" data-name="Layer 1"><path class="cls-1" d="M22.94,19,31.61,1.16a2.05,2.05,0,0,1,3.69,0L44.22,18.9A2.05,2.05,0,0,0,45.78,20l19.69,2.72a2.05,2.05,0,0,1,1.16,3.5L52.5,40.2A2.05,2.05,0,0,0,51.92,42l3.5,19.57a2.05,2.05,0,0,1-3,2.19L34.79,54.66a2.05,2.05,0,0,0-1.91,0L15.35,64a2.05,2.05,0,0,1-3-2.14l3.22-19.62a2.05,2.05,0,0,0-.6-1.81L.63,26.7a2.05,2.05,0,0,1,1.11-3.51l19.65-3A2.05,2.05,0,0,0,22.94,19Z"/></g></g></svg>