<svg xmlns="http://www.w3.org/2000/svg" viewBox="0 0 74.87 69"><defs><style>.cls-1{fill:#fff;}.cls-2,.cls-3{fill:none;stroke-miterlimit:10;}.cls-2{stroke:#000;}.cls-3{stroke:#fff;stroke-linecap:round;stroke-width:3px;}</style></defs><title>umbrella</title><g id="Layer_2" data-name="Layer 2"><g id="Layer_1-2" data-name="Layer 1"><path class="cls-1" d="M74.84,33a.69.69,0,0,1-.88.86,8.13,8.13,0,0,0-2.5-.38A6.83,6.83,0,0,0,67,34.95a.67.67,0,0,1-.75.06,17.82,17.82,0,0,0-7.8-1.5c-3.59,0-6.71.73-8.33,1.81a.72.72,0,0,1-.73.05c-2.26-1.11-6.76-1.87-11.94-1.87s-9.68.76-11.94,1.87a.72.72,0,0,1-.73-.05C23.16,34.23,20,33.5,16.45,33.5A17.82,17.82,0,0,0,8.65,35a.67.67,0,0,1-.75-.06A6.83,6.83,0,0,0,3.45,33.5a8.09,8.09,0,0,0-2.53.39A.69.69,0,0,1,0,33C5.75,14.6,17.18,2,37.45,2S69.11,15.48,74.84,33Z"/><path class="cls-2" d="M75.45,35"/><path class="cls-3" d="M25,61.5a6,6,0,1,0,12,0V1.5"/></g></g></svg>